<mxfile host="app.diagrams.net" agent="Mozilla/5.0 (Windows NT 10.0; Win64; x64) AppleWebKit/537.36 (KHTML, like Gecko) Chrome/141.0.0.0 Safari/537.36" version="28.2.5">
  <diagram name="Pagina-1" id="e6dBfpMn45Nm_2Y-hpNC">
    <mxGraphModel dx="1314" dy="670" grid="1" gridSize="10" guides="1" tooltips="1" connect="1" arrows="1" fold="1" page="1" pageScale="1" pageWidth="827" pageHeight="1169" math="0" shadow="0">
      <root>
        <mxCell id="0" />
        <mxCell id="1" parent="0" />
        <mxCell id="QXhSvdudEU8Zpg_jGtjA-2" style="edgeStyle=orthogonalEdgeStyle;rounded=0;orthogonalLoop=1;jettySize=auto;html=1;endArrow=oval;endFill=1;labelBackgroundColor=none;" parent="1" edge="1">
          <mxGeometry relative="1" as="geometry">
            <mxPoint x="373" y="600" as="targetPoint" />
            <mxPoint x="373" y="620" as="sourcePoint" />
            <Array as="points">
              <mxPoint x="373" y="620" />
              <mxPoint x="373" y="620" />
            </Array>
          </mxGeometry>
        </mxCell>
        <mxCell id="QXhSvdudEU8Zpg_jGtjA-3" value="UserID" style="edgeLabel;html=1;align=center;verticalAlign=middle;resizable=0;points=[];labelBackgroundColor=none;" parent="QXhSvdudEU8Zpg_jGtjA-2" vertex="1" connectable="0">
          <mxGeometry x="0.9524" y="-2" relative="1" as="geometry">
            <mxPoint x="-1" y="-13" as="offset" />
          </mxGeometry>
        </mxCell>
        <mxCell id="QXhSvdudEU8Zpg_jGtjA-4" style="edgeStyle=orthogonalEdgeStyle;rounded=0;orthogonalLoop=1;jettySize=auto;html=1;endArrow=oval;endFill=0;labelBackgroundColor=none;" parent="1" edge="1">
          <mxGeometry relative="1" as="geometry">
            <mxPoint x="413" y="598.99" as="targetPoint" />
            <mxPoint x="413.00671140939596" y="618.99" as="sourcePoint" />
          </mxGeometry>
        </mxCell>
        <mxCell id="QXhSvdudEU8Zpg_jGtjA-5" value="FirstName" style="edgeLabel;html=1;align=center;verticalAlign=middle;resizable=0;points=[];labelBackgroundColor=none;" parent="QXhSvdudEU8Zpg_jGtjA-4" vertex="1" connectable="0">
          <mxGeometry x="1" y="-1" relative="1" as="geometry">
            <mxPoint x="10" y="-11" as="offset" />
          </mxGeometry>
        </mxCell>
        <mxCell id="QXhSvdudEU8Zpg_jGtjA-15" value="" style="edgeStyle=orthogonalEdgeStyle;rounded=0;orthogonalLoop=1;jettySize=auto;html=1;exitX=0;exitY=0.5;exitDx=0;exitDy=0;endArrow=none;startFill=0;" parent="1" source="QXhSvdudEU8Zpg_jGtjA-1" target="QXhSvdudEU8Zpg_jGtjA-14" edge="1">
          <mxGeometry relative="1" as="geometry">
            <Array as="points">
              <mxPoint x="210" y="640" />
            </Array>
          </mxGeometry>
        </mxCell>
        <mxCell id="-OiWv6YgdJjUTmC7FPqm-50" value="1" style="edgeLabel;html=1;align=center;verticalAlign=middle;resizable=0;points=[];labelBackgroundColor=none;" parent="QXhSvdudEU8Zpg_jGtjA-15" vertex="1" connectable="0">
          <mxGeometry x="-0.9663" y="-1" relative="1" as="geometry">
            <mxPoint x="-3" y="8" as="offset" />
          </mxGeometry>
        </mxCell>
        <mxCell id="-OiWv6YgdJjUTmC7FPqm-19" value="" style="edgeStyle=orthogonalEdgeStyle;rounded=0;orthogonalLoop=1;jettySize=auto;html=1;endArrow=none;endFill=0;" parent="1" source="QXhSvdudEU8Zpg_jGtjA-1" target="-OiWv6YgdJjUTmC7FPqm-18" edge="1">
          <mxGeometry relative="1" as="geometry" />
        </mxCell>
        <mxCell id="-OiWv6YgdJjUTmC7FPqm-21" value="" style="edgeStyle=orthogonalEdgeStyle;rounded=0;orthogonalLoop=1;jettySize=auto;html=1;endArrow=none;endFill=0;" parent="1" source="QXhSvdudEU8Zpg_jGtjA-1" target="-OiWv6YgdJjUTmC7FPqm-20" edge="1">
          <mxGeometry relative="1" as="geometry" />
        </mxCell>
        <mxCell id="QXhSvdudEU8Zpg_jGtjA-1" value="Users" style="rounded=1;arcSize=10;whiteSpace=wrap;html=1;align=center;fillColor=none;" parent="1" vertex="1">
          <mxGeometry x="363" y="620" width="100" height="40" as="geometry" />
        </mxCell>
        <mxCell id="QXhSvdudEU8Zpg_jGtjA-6" style="edgeStyle=orthogonalEdgeStyle;rounded=0;orthogonalLoop=1;jettySize=auto;html=1;endArrow=oval;endFill=0;labelBackgroundColor=none;exitX=0.97;exitY=0.015;exitDx=0;exitDy=0;exitPerimeter=0;" parent="1" source="QXhSvdudEU8Zpg_jGtjA-1" edge="1">
          <mxGeometry relative="1" as="geometry">
            <mxPoint x="460" y="610" as="targetPoint" />
            <mxPoint x="463" y="630" as="sourcePoint" />
          </mxGeometry>
        </mxCell>
        <mxCell id="QXhSvdudEU8Zpg_jGtjA-7" value="LastName" style="edgeLabel;html=1;align=center;verticalAlign=middle;resizable=0;points=[];labelBackgroundColor=none;" parent="QXhSvdudEU8Zpg_jGtjA-6" vertex="1" connectable="0">
          <mxGeometry x="1" y="-1" relative="1" as="geometry">
            <mxPoint x="19" y="-10" as="offset" />
          </mxGeometry>
        </mxCell>
        <mxCell id="QXhSvdudEU8Zpg_jGtjA-8" style="edgeStyle=orthogonalEdgeStyle;rounded=0;orthogonalLoop=1;jettySize=auto;html=1;endArrow=oval;endFill=0;labelBackgroundColor=none;exitX=0.969;exitY=1.029;exitDx=0;exitDy=0;exitPerimeter=0;" parent="1" source="QXhSvdudEU8Zpg_jGtjA-1" edge="1">
          <mxGeometry relative="1" as="geometry">
            <mxPoint x="460" y="680" as="targetPoint" />
            <mxPoint x="463" y="650" as="sourcePoint" />
            <Array as="points">
              <mxPoint x="460" y="670" />
              <mxPoint x="460" y="670" />
            </Array>
          </mxGeometry>
        </mxCell>
        <mxCell id="QXhSvdudEU8Zpg_jGtjA-9" value="Email" style="edgeLabel;html=1;align=center;verticalAlign=middle;resizable=0;points=[];labelBackgroundColor=none;" parent="QXhSvdudEU8Zpg_jGtjA-8" vertex="1" connectable="0">
          <mxGeometry x="1" y="-1" relative="1" as="geometry">
            <mxPoint x="2" y="10" as="offset" />
          </mxGeometry>
        </mxCell>
        <mxCell id="QXhSvdudEU8Zpg_jGtjA-12" style="edgeStyle=orthogonalEdgeStyle;rounded=0;orthogonalLoop=1;jettySize=auto;html=1;endArrow=oval;endFill=0;labelBackgroundColor=none;" parent="1" edge="1">
          <mxGeometry relative="1" as="geometry">
            <mxPoint x="353" y="630" as="targetPoint" />
            <mxPoint x="363" y="630" as="sourcePoint" />
          </mxGeometry>
        </mxCell>
        <mxCell id="QXhSvdudEU8Zpg_jGtjA-13" value="Password" style="edgeLabel;html=1;align=center;verticalAlign=middle;resizable=0;points=[];labelBackgroundColor=none;" parent="QXhSvdudEU8Zpg_jGtjA-12" vertex="1" connectable="0">
          <mxGeometry x="1" y="-1" relative="1" as="geometry">
            <mxPoint x="-30" y="-1" as="offset" />
          </mxGeometry>
        </mxCell>
        <mxCell id="QXhSvdudEU8Zpg_jGtjA-17" value="" style="edgeStyle=orthogonalEdgeStyle;rounded=0;orthogonalLoop=1;jettySize=auto;html=1;endArrow=none;startFill=0;" parent="1" source="QXhSvdudEU8Zpg_jGtjA-14" target="QXhSvdudEU8Zpg_jGtjA-16" edge="1">
          <mxGeometry relative="1" as="geometry" />
        </mxCell>
        <mxCell id="QXhSvdudEU8Zpg_jGtjA-14" value="Can be" style="rhombus;whiteSpace=wrap;html=1;fillColor=none;rounded=1;arcSize=10;" parent="1" vertex="1">
          <mxGeometry x="170" y="680" width="80" height="80" as="geometry" />
        </mxCell>
        <mxCell id="QXhSvdudEU8Zpg_jGtjA-32" value="" style="edgeStyle=orthogonalEdgeStyle;rounded=0;orthogonalLoop=1;jettySize=auto;html=1;endArrow=none;startFill=0;" parent="1" source="QXhSvdudEU8Zpg_jGtjA-16" target="QXhSvdudEU8Zpg_jGtjA-31" edge="1">
          <mxGeometry relative="1" as="geometry" />
        </mxCell>
        <mxCell id="QXhSvdudEU8Zpg_jGtjA-16" value="Performers" style="whiteSpace=wrap;html=1;fillColor=none;rounded=1;arcSize=10;" parent="1" vertex="1">
          <mxGeometry x="160" y="800" width="100" height="40" as="geometry" />
        </mxCell>
        <mxCell id="QXhSvdudEU8Zpg_jGtjA-20" style="edgeStyle=orthogonalEdgeStyle;rounded=0;orthogonalLoop=1;jettySize=auto;html=1;endArrow=oval;endFill=1;labelBackgroundColor=none;" parent="1" edge="1">
          <mxGeometry relative="1" as="geometry">
            <mxPoint x="170" y="780" as="targetPoint" />
            <mxPoint x="170" y="800" as="sourcePoint" />
            <Array as="points">
              <mxPoint x="170" y="800" />
              <mxPoint x="170" y="800" />
            </Array>
          </mxGeometry>
        </mxCell>
        <mxCell id="QXhSvdudEU8Zpg_jGtjA-21" value="PerformerID" style="edgeLabel;html=1;align=center;verticalAlign=middle;resizable=0;points=[];labelBackgroundColor=none;" parent="QXhSvdudEU8Zpg_jGtjA-20" vertex="1" connectable="0">
          <mxGeometry x="0.9524" y="-2" relative="1" as="geometry">
            <mxPoint x="-1" y="-13" as="offset" />
          </mxGeometry>
        </mxCell>
        <mxCell id="QXhSvdudEU8Zpg_jGtjA-23" style="edgeStyle=orthogonalEdgeStyle;rounded=0;orthogonalLoop=1;jettySize=auto;html=1;endArrow=oval;endFill=0;labelBackgroundColor=none;" parent="1" edge="1">
          <mxGeometry relative="1" as="geometry">
            <mxPoint x="150" y="810" as="targetPoint" />
            <mxPoint x="160" y="810" as="sourcePoint" />
          </mxGeometry>
        </mxCell>
        <mxCell id="QXhSvdudEU8Zpg_jGtjA-24" value="Description" style="edgeLabel;html=1;align=center;verticalAlign=middle;resizable=0;points=[];labelBackgroundColor=none;" parent="QXhSvdudEU8Zpg_jGtjA-23" vertex="1" connectable="0">
          <mxGeometry x="1" y="-1" relative="1" as="geometry">
            <mxPoint x="-34" y="-1" as="offset" />
          </mxGeometry>
        </mxCell>
        <mxCell id="QXhSvdudEU8Zpg_jGtjA-29" style="edgeStyle=orthogonalEdgeStyle;rounded=0;orthogonalLoop=1;jettySize=auto;html=1;endArrow=oval;endFill=0;labelBackgroundColor=none;" parent="1" edge="1">
          <mxGeometry relative="1" as="geometry">
            <mxPoint x="150" y="830" as="targetPoint" />
            <mxPoint x="160" y="830" as="sourcePoint" />
          </mxGeometry>
        </mxCell>
        <mxCell id="QXhSvdudEU8Zpg_jGtjA-30" value="CV?" style="edgeLabel;html=1;align=center;verticalAlign=middle;resizable=0;points=[];labelBackgroundColor=none;" parent="QXhSvdudEU8Zpg_jGtjA-29" vertex="1" connectable="0">
          <mxGeometry x="1" y="-1" relative="1" as="geometry">
            <mxPoint x="-15" y="-1" as="offset" />
          </mxGeometry>
        </mxCell>
        <mxCell id="QXhSvdudEU8Zpg_jGtjA-34" value="" style="edgeStyle=orthogonalEdgeStyle;rounded=0;orthogonalLoop=1;jettySize=auto;html=1;endArrow=none;startFill=0;entryX=0.5;entryY=0;entryDx=0;entryDy=0;" parent="1" source="QXhSvdudEU8Zpg_jGtjA-31" target="QXhSvdudEU8Zpg_jGtjA-35" edge="1">
          <mxGeometry relative="1" as="geometry">
            <mxPoint x="210" y="1050" as="targetPoint" />
          </mxGeometry>
        </mxCell>
        <mxCell id="-OiWv6YgdJjUTmC7FPqm-59" value="N" style="edgeLabel;html=1;align=center;verticalAlign=middle;resizable=0;points=[];labelBackgroundColor=none;" parent="QXhSvdudEU8Zpg_jGtjA-34" vertex="1" connectable="0">
          <mxGeometry x="0.4809" relative="1" as="geometry">
            <mxPoint x="6" y="8" as="offset" />
          </mxGeometry>
        </mxCell>
        <mxCell id="QXhSvdudEU8Zpg_jGtjA-31" value="Apply" style="rhombus;whiteSpace=wrap;html=1;fillColor=none;rounded=1;arcSize=10;" parent="1" vertex="1">
          <mxGeometry x="170" y="880" width="80" height="80" as="geometry" />
        </mxCell>
        <mxCell id="-OiWv6YgdJjUTmC7FPqm-9" value="" style="edgeStyle=orthogonalEdgeStyle;rounded=0;orthogonalLoop=1;jettySize=auto;html=1;endArrow=none;endFill=0;" parent="1" source="QXhSvdudEU8Zpg_jGtjA-35" target="-OiWv6YgdJjUTmC7FPqm-8" edge="1">
          <mxGeometry relative="1" as="geometry">
            <Array as="points">
              <mxPoint x="210" y="1190" />
            </Array>
          </mxGeometry>
        </mxCell>
        <mxCell id="QXhSvdudEU8Zpg_jGtjA-35" value="Castings" style="whiteSpace=wrap;html=1;fillColor=none;rounded=1;arcSize=10;" parent="1" vertex="1">
          <mxGeometry x="160" y="1020" width="100" height="40" as="geometry" />
        </mxCell>
        <mxCell id="QXhSvdudEU8Zpg_jGtjA-36" style="edgeStyle=orthogonalEdgeStyle;rounded=0;orthogonalLoop=1;jettySize=auto;html=1;endArrow=oval;endFill=1;labelBackgroundColor=none;" parent="1" edge="1">
          <mxGeometry relative="1" as="geometry">
            <mxPoint x="170" y="1000" as="targetPoint" />
            <mxPoint x="170" y="1020" as="sourcePoint" />
            <Array as="points">
              <mxPoint x="170" y="1020" />
              <mxPoint x="170" y="1020" />
            </Array>
          </mxGeometry>
        </mxCell>
        <mxCell id="QXhSvdudEU8Zpg_jGtjA-37" value="CastingID" style="edgeLabel;html=1;align=center;verticalAlign=middle;resizable=0;points=[];labelBackgroundColor=none;" parent="QXhSvdudEU8Zpg_jGtjA-36" vertex="1" connectable="0">
          <mxGeometry x="0.9524" y="-2" relative="1" as="geometry">
            <mxPoint x="-1" y="-13" as="offset" />
          </mxGeometry>
        </mxCell>
        <mxCell id="QXhSvdudEU8Zpg_jGtjA-38" style="edgeStyle=orthogonalEdgeStyle;rounded=0;orthogonalLoop=1;jettySize=auto;html=1;endArrow=oval;endFill=0;labelBackgroundColor=none;" parent="1" edge="1">
          <mxGeometry relative="1" as="geometry">
            <mxPoint x="150" y="1031" as="targetPoint" />
            <mxPoint x="160" y="1031" as="sourcePoint" />
          </mxGeometry>
        </mxCell>
        <mxCell id="QXhSvdudEU8Zpg_jGtjA-39" value="Description" style="edgeLabel;html=1;align=center;verticalAlign=middle;resizable=0;points=[];labelBackgroundColor=none;" parent="QXhSvdudEU8Zpg_jGtjA-38" vertex="1" connectable="0">
          <mxGeometry x="1" y="-1" relative="1" as="geometry">
            <mxPoint x="-32" y="-1" as="offset" />
          </mxGeometry>
        </mxCell>
        <mxCell id="QXhSvdudEU8Zpg_jGtjA-40" style="edgeStyle=orthogonalEdgeStyle;rounded=0;orthogonalLoop=1;jettySize=auto;html=1;endArrow=oval;endFill=0;labelBackgroundColor=none;" parent="1" edge="1">
          <mxGeometry relative="1" as="geometry">
            <mxPoint x="150" y="1051" as="targetPoint" />
            <mxPoint x="160" y="1051" as="sourcePoint" />
          </mxGeometry>
        </mxCell>
        <mxCell id="QXhSvdudEU8Zpg_jGtjA-41" value="Date" style="edgeLabel;html=1;align=center;verticalAlign=middle;resizable=0;points=[];labelBackgroundColor=none;" parent="QXhSvdudEU8Zpg_jGtjA-40" vertex="1" connectable="0">
          <mxGeometry x="1" y="-1" relative="1" as="geometry">
            <mxPoint x="-18" y="-1" as="offset" />
          </mxGeometry>
        </mxCell>
        <mxCell id="QXhSvdudEU8Zpg_jGtjA-42" style="edgeStyle=orthogonalEdgeStyle;rounded=0;orthogonalLoop=1;jettySize=auto;html=1;endArrow=oval;endFill=0;labelBackgroundColor=none;" parent="1" edge="1">
          <mxGeometry relative="1" as="geometry">
            <mxPoint x="270" y="1031" as="targetPoint" />
            <mxPoint x="260" y="1031" as="sourcePoint" />
          </mxGeometry>
        </mxCell>
        <mxCell id="QXhSvdudEU8Zpg_jGtjA-43" value="Location" style="edgeLabel;html=1;align=center;verticalAlign=middle;resizable=0;points=[];labelBackgroundColor=none;" parent="QXhSvdudEU8Zpg_jGtjA-42" vertex="1" connectable="0">
          <mxGeometry x="1" y="-1" relative="1" as="geometry">
            <mxPoint x="30" y="-1" as="offset" />
          </mxGeometry>
        </mxCell>
        <mxCell id="QXhSvdudEU8Zpg_jGtjA-45" style="edgeStyle=orthogonalEdgeStyle;rounded=0;orthogonalLoop=1;jettySize=auto;html=1;endArrow=oval;endFill=0;labelBackgroundColor=none;" parent="1" edge="1">
          <mxGeometry relative="1" as="geometry">
            <mxPoint x="270" y="1051" as="targetPoint" />
            <mxPoint x="260" y="1051" as="sourcePoint" />
          </mxGeometry>
        </mxCell>
        <mxCell id="QXhSvdudEU8Zpg_jGtjA-46" value="Caregory" style="edgeLabel;html=1;align=center;verticalAlign=middle;resizable=0;points=[];labelBackgroundColor=none;" parent="QXhSvdudEU8Zpg_jGtjA-45" vertex="1" connectable="0">
          <mxGeometry x="1" y="-1" relative="1" as="geometry">
            <mxPoint x="30" y="-1" as="offset" />
          </mxGeometry>
        </mxCell>
        <mxCell id="QXhSvdudEU8Zpg_jGtjA-48" value="Casting Directors" style="rounded=1;arcSize=10;whiteSpace=wrap;html=1;align=center;fillColor=none;" parent="1" vertex="1">
          <mxGeometry x="363" y="900" width="100" height="40" as="geometry" />
        </mxCell>
        <mxCell id="QXhSvdudEU8Zpg_jGtjA-51" style="edgeStyle=orthogonalEdgeStyle;rounded=0;orthogonalLoop=1;jettySize=auto;html=1;entryX=1;entryY=0.5;entryDx=0;entryDy=0;endArrow=none;endFill=0;" parent="1" source="QXhSvdudEU8Zpg_jGtjA-50" target="QXhSvdudEU8Zpg_jGtjA-35" edge="1">
          <mxGeometry relative="1" as="geometry" />
        </mxCell>
        <mxCell id="QXhSvdudEU8Zpg_jGtjA-52" style="edgeStyle=orthogonalEdgeStyle;rounded=0;orthogonalLoop=1;jettySize=auto;html=1;entryX=0.5;entryY=1;entryDx=0;entryDy=0;endArrow=none;endFill=0;" parent="1" source="QXhSvdudEU8Zpg_jGtjA-50" target="QXhSvdudEU8Zpg_jGtjA-48" edge="1">
          <mxGeometry relative="1" as="geometry" />
        </mxCell>
        <mxCell id="-OiWv6YgdJjUTmC7FPqm-63" value="1" style="edgeLabel;html=1;align=center;verticalAlign=middle;resizable=0;points=[];labelBackgroundColor=none;" parent="QXhSvdudEU8Zpg_jGtjA-52" vertex="1" connectable="0">
          <mxGeometry x="0.8335" y="-1" relative="1" as="geometry">
            <mxPoint x="4" y="1" as="offset" />
          </mxGeometry>
        </mxCell>
        <mxCell id="QXhSvdudEU8Zpg_jGtjA-50" value="Create" style="rhombus;whiteSpace=wrap;html=1;fillColor=none;" parent="1" vertex="1">
          <mxGeometry x="373" y="1000" width="80" height="80" as="geometry" />
        </mxCell>
        <mxCell id="-OiWv6YgdJjUTmC7FPqm-13" value="" style="edgeStyle=orthogonalEdgeStyle;rounded=0;orthogonalLoop=1;jettySize=auto;html=1;endArrow=none;endFill=0;" parent="1" source="QXhSvdudEU8Zpg_jGtjA-53" target="-OiWv6YgdJjUTmC7FPqm-12" edge="1">
          <mxGeometry relative="1" as="geometry" />
        </mxCell>
        <mxCell id="PArqzCIAgWLGkV0erf1x-2" value="" style="edgeStyle=orthogonalEdgeStyle;rounded=0;orthogonalLoop=1;jettySize=auto;html=1;endArrow=none;endFill=0;" parent="1" source="QXhSvdudEU8Zpg_jGtjA-53" target="PArqzCIAgWLGkV0erf1x-1" edge="1">
          <mxGeometry relative="1" as="geometry" />
        </mxCell>
        <mxCell id="_c7CjKo0JtjSk6hhED-u-2" value="N" style="edgeLabel;html=1;align=center;verticalAlign=middle;resizable=0;points=[];labelBackgroundColor=none;" vertex="1" connectable="0" parent="PArqzCIAgWLGkV0erf1x-2">
          <mxGeometry x="0.6139" y="-1" relative="1" as="geometry">
            <mxPoint x="1" y="-7" as="offset" />
          </mxGeometry>
        </mxCell>
        <mxCell id="QXhSvdudEU8Zpg_jGtjA-53" value="Production Managers" style="rounded=1;arcSize=10;whiteSpace=wrap;html=1;align=center;fillColor=none;" parent="1" vertex="1">
          <mxGeometry x="560" y="800" width="100" height="40" as="geometry" />
        </mxCell>
        <mxCell id="QXhSvdudEU8Zpg_jGtjA-54" style="edgeStyle=orthogonalEdgeStyle;rounded=0;orthogonalLoop=1;jettySize=auto;html=1;endArrow=oval;endFill=0;labelBackgroundColor=none;" parent="1" edge="1">
          <mxGeometry relative="1" as="geometry">
            <mxPoint x="169.01999999999998" y="1080" as="targetPoint" />
            <mxPoint x="169" y="1060" as="sourcePoint" />
            <Array as="points">
              <mxPoint x="169" y="1060" />
            </Array>
          </mxGeometry>
        </mxCell>
        <mxCell id="QXhSvdudEU8Zpg_jGtjA-55" value="DeadLine" style="edgeLabel;html=1;align=center;verticalAlign=middle;resizable=0;points=[];labelBackgroundColor=none;" parent="QXhSvdudEU8Zpg_jGtjA-54" vertex="1" connectable="0">
          <mxGeometry x="1" y="-1" relative="1" as="geometry">
            <mxPoint x="2" y="10" as="offset" />
          </mxGeometry>
        </mxCell>
        <mxCell id="QXhSvdudEU8Zpg_jGtjA-56" style="edgeStyle=orthogonalEdgeStyle;rounded=0;orthogonalLoop=1;jettySize=auto;html=1;endArrow=oval;endFill=0;labelBackgroundColor=none;" parent="1" edge="1">
          <mxGeometry relative="1" as="geometry">
            <mxPoint x="249.85999999999999" y="1080" as="targetPoint" />
            <mxPoint x="249.84" y="1060" as="sourcePoint" />
            <Array as="points">
              <mxPoint x="249.84" y="1060" />
            </Array>
          </mxGeometry>
        </mxCell>
        <mxCell id="QXhSvdudEU8Zpg_jGtjA-57" value="Title" style="edgeLabel;html=1;align=center;verticalAlign=middle;resizable=0;points=[];labelBackgroundColor=none;" parent="QXhSvdudEU8Zpg_jGtjA-56" vertex="1" connectable="0">
          <mxGeometry x="1" y="-1" relative="1" as="geometry">
            <mxPoint x="2" y="10" as="offset" />
          </mxGeometry>
        </mxCell>
        <mxCell id="QXhSvdudEU8Zpg_jGtjA-58" value="Productions" style="rounded=1;arcSize=10;whiteSpace=wrap;html=1;align=center;fillColor=none;" parent="1" vertex="1">
          <mxGeometry x="560" y="1020" width="100" height="40" as="geometry" />
        </mxCell>
        <mxCell id="-OiWv6YgdJjUTmC7FPqm-8" value="Refers" style="rhombus;whiteSpace=wrap;html=1;fillColor=none;rounded=1;arcSize=10;" parent="1" vertex="1">
          <mxGeometry x="373" y="1150" width="80" height="80" as="geometry" />
        </mxCell>
        <mxCell id="-OiWv6YgdJjUTmC7FPqm-11" style="edgeStyle=orthogonalEdgeStyle;rounded=0;orthogonalLoop=1;jettySize=auto;html=1;endArrow=none;endFill=0;" parent="1" source="-OiWv6YgdJjUTmC7FPqm-8" edge="1">
          <mxGeometry relative="1" as="geometry">
            <mxPoint x="610" y="1060" as="targetPoint" />
            <Array as="points">
              <mxPoint x="610" y="1190" />
              <mxPoint x="610" y="1060" />
            </Array>
          </mxGeometry>
        </mxCell>
        <mxCell id="-OiWv6YgdJjUTmC7FPqm-64" value="1" style="edgeLabel;html=1;align=center;verticalAlign=middle;resizable=0;points=[];labelBackgroundColor=none;" parent="-OiWv6YgdJjUTmC7FPqm-11" vertex="1" connectable="0">
          <mxGeometry x="0.947" relative="1" as="geometry">
            <mxPoint x="5" as="offset" />
          </mxGeometry>
        </mxCell>
        <mxCell id="-OiWv6YgdJjUTmC7FPqm-14" style="edgeStyle=orthogonalEdgeStyle;rounded=0;orthogonalLoop=1;jettySize=auto;html=1;entryX=0.5;entryY=0;entryDx=0;entryDy=0;endArrow=none;endFill=0;" parent="1" source="-OiWv6YgdJjUTmC7FPqm-12" target="QXhSvdudEU8Zpg_jGtjA-58" edge="1">
          <mxGeometry relative="1" as="geometry" />
        </mxCell>
        <mxCell id="-OiWv6YgdJjUTmC7FPqm-56" value="N" style="edgeLabel;html=1;align=center;verticalAlign=middle;resizable=0;points=[];labelBackgroundColor=none;" parent="-OiWv6YgdJjUTmC7FPqm-14" vertex="1" connectable="0">
          <mxGeometry x="0.742" y="1" relative="1" as="geometry">
            <mxPoint x="6" as="offset" />
          </mxGeometry>
        </mxCell>
        <mxCell id="-OiWv6YgdJjUTmC7FPqm-12" value="Create" style="rhombus;whiteSpace=wrap;html=1;fillColor=none;rounded=1;arcSize=10;" parent="1" vertex="1">
          <mxGeometry x="570" y="880" width="80" height="80" as="geometry" />
        </mxCell>
        <mxCell id="-OiWv6YgdJjUTmC7FPqm-22" style="edgeStyle=orthogonalEdgeStyle;rounded=0;orthogonalLoop=1;jettySize=auto;html=1;entryX=0.5;entryY=0;entryDx=0;entryDy=0;endArrow=none;endFill=0;" parent="1" source="-OiWv6YgdJjUTmC7FPqm-18" target="QXhSvdudEU8Zpg_jGtjA-53" edge="1">
          <mxGeometry relative="1" as="geometry" />
        </mxCell>
        <mxCell id="-OiWv6YgdJjUTmC7FPqm-18" value="Can be" style="rhombus;whiteSpace=wrap;html=1;fillColor=none;rounded=1;arcSize=10;" parent="1" vertex="1">
          <mxGeometry x="570" y="680" width="80" height="80" as="geometry" />
        </mxCell>
        <mxCell id="-OiWv6YgdJjUTmC7FPqm-24" style="edgeStyle=orthogonalEdgeStyle;rounded=0;orthogonalLoop=1;jettySize=auto;html=1;entryX=0.5;entryY=0;entryDx=0;entryDy=0;endArrow=none;endFill=0;" parent="1" source="-OiWv6YgdJjUTmC7FPqm-20" target="QXhSvdudEU8Zpg_jGtjA-48" edge="1">
          <mxGeometry relative="1" as="geometry" />
        </mxCell>
        <mxCell id="-OiWv6YgdJjUTmC7FPqm-20" value="Can be" style="rhombus;whiteSpace=wrap;html=1;fillColor=none;rounded=1;arcSize=10;" parent="1" vertex="1">
          <mxGeometry x="373" y="680" width="80" height="80" as="geometry" />
        </mxCell>
        <mxCell id="-OiWv6YgdJjUTmC7FPqm-25" style="edgeStyle=orthogonalEdgeStyle;rounded=0;orthogonalLoop=1;jettySize=auto;html=1;endArrow=oval;endFill=1;labelBackgroundColor=none;" parent="1" edge="1">
          <mxGeometry relative="1" as="geometry">
            <mxPoint x="650" y="1000" as="targetPoint" />
            <mxPoint x="650" y="1020" as="sourcePoint" />
            <Array as="points">
              <mxPoint x="650" y="1010" />
              <mxPoint x="650" y="1010" />
            </Array>
          </mxGeometry>
        </mxCell>
        <mxCell id="-OiWv6YgdJjUTmC7FPqm-26" value="ProductionID" style="edgeLabel;html=1;align=center;verticalAlign=middle;resizable=0;points=[];labelBackgroundColor=none;" parent="-OiWv6YgdJjUTmC7FPqm-25" vertex="1" connectable="0">
          <mxGeometry x="0.9524" y="-2" relative="1" as="geometry">
            <mxPoint x="-1" y="-13" as="offset" />
          </mxGeometry>
        </mxCell>
        <mxCell id="-OiWv6YgdJjUTmC7FPqm-27" style="edgeStyle=orthogonalEdgeStyle;rounded=0;orthogonalLoop=1;jettySize=auto;html=1;endArrow=oval;endFill=0;labelBackgroundColor=none;" parent="1" edge="1">
          <mxGeometry relative="1" as="geometry">
            <mxPoint x="670" y="1030" as="targetPoint" />
            <mxPoint x="660" y="1030" as="sourcePoint" />
          </mxGeometry>
        </mxCell>
        <mxCell id="-OiWv6YgdJjUTmC7FPqm-28" value="Title" style="edgeLabel;html=1;align=center;verticalAlign=middle;resizable=0;points=[];labelBackgroundColor=none;" parent="-OiWv6YgdJjUTmC7FPqm-27" vertex="1" connectable="0">
          <mxGeometry x="1" y="-1" relative="1" as="geometry">
            <mxPoint x="16" y="-1" as="offset" />
          </mxGeometry>
        </mxCell>
        <mxCell id="-OiWv6YgdJjUTmC7FPqm-29" style="edgeStyle=orthogonalEdgeStyle;rounded=0;orthogonalLoop=1;jettySize=auto;html=1;endArrow=oval;endFill=0;labelBackgroundColor=none;" parent="1" edge="1">
          <mxGeometry relative="1" as="geometry">
            <mxPoint x="670" y="1050" as="targetPoint" />
            <mxPoint x="660" y="1050" as="sourcePoint" />
          </mxGeometry>
        </mxCell>
        <mxCell id="-OiWv6YgdJjUTmC7FPqm-30" value="Type" style="edgeLabel;html=1;align=center;verticalAlign=middle;resizable=0;points=[];labelBackgroundColor=none;" parent="-OiWv6YgdJjUTmC7FPqm-29" vertex="1" connectable="0">
          <mxGeometry x="1" y="-1" relative="1" as="geometry">
            <mxPoint x="16" y="-1" as="offset" />
          </mxGeometry>
        </mxCell>
        <mxCell id="-OiWv6YgdJjUTmC7FPqm-32" style="edgeStyle=orthogonalEdgeStyle;rounded=0;orthogonalLoop=1;jettySize=auto;html=1;endArrow=oval;endFill=0;labelBackgroundColor=none;" parent="1" edge="1">
          <mxGeometry relative="1" as="geometry">
            <mxPoint x="249.81" y="780" as="targetPoint" />
            <mxPoint x="249.81671140939596" y="800" as="sourcePoint" />
          </mxGeometry>
        </mxCell>
        <mxCell id="-OiWv6YgdJjUTmC7FPqm-34" value="PhoneNumber" style="edgeLabel;html=1;align=center;verticalAlign=middle;resizable=0;points=[];labelBackgroundColor=none;" parent="-OiWv6YgdJjUTmC7FPqm-32" vertex="1" connectable="0">
          <mxGeometry x="1" y="-4" relative="1" as="geometry">
            <mxPoint y="-11" as="offset" />
          </mxGeometry>
        </mxCell>
        <mxCell id="-OiWv6YgdJjUTmC7FPqm-36" value="" style="endArrow=oval;html=1;rounded=0;endFill=0;" parent="1" edge="1">
          <mxGeometry width="50" height="50" relative="1" as="geometry">
            <mxPoint x="230" y="900" as="sourcePoint" />
            <mxPoint x="240" y="890" as="targetPoint" />
          </mxGeometry>
        </mxCell>
        <mxCell id="-OiWv6YgdJjUTmC7FPqm-37" value="Feedback" style="edgeLabel;html=1;align=center;verticalAlign=middle;resizable=0;points=[];labelBackgroundColor=none;" parent="-OiWv6YgdJjUTmC7FPqm-36" vertex="1" connectable="0">
          <mxGeometry x="1" y="-2" relative="1" as="geometry">
            <mxPoint x="19" y="-11" as="offset" />
          </mxGeometry>
        </mxCell>
        <mxCell id="-OiWv6YgdJjUTmC7FPqm-38" value="" style="endArrow=oval;html=1;rounded=0;endFill=0;" parent="1" edge="1">
          <mxGeometry width="50" height="50" relative="1" as="geometry">
            <mxPoint x="230" y="940" as="sourcePoint" />
            <mxPoint x="240" y="950" as="targetPoint" />
          </mxGeometry>
        </mxCell>
        <mxCell id="-OiWv6YgdJjUTmC7FPqm-39" value="Status" style="edgeLabel;html=1;align=center;verticalAlign=middle;resizable=0;points=[];labelBackgroundColor=none;" parent="-OiWv6YgdJjUTmC7FPqm-38" vertex="1" connectable="0">
          <mxGeometry x="1" y="4" relative="1" as="geometry">
            <mxPoint x="14" y="11" as="offset" />
          </mxGeometry>
        </mxCell>
        <mxCell id="-OiWv6YgdJjUTmC7FPqm-40" style="edgeStyle=orthogonalEdgeStyle;rounded=0;orthogonalLoop=1;jettySize=auto;html=1;endArrow=oval;endFill=1;labelBackgroundColor=none;" parent="1" edge="1">
          <mxGeometry relative="1" as="geometry">
            <mxPoint x="569.84" y="780" as="targetPoint" />
            <mxPoint x="569.84" y="800" as="sourcePoint" />
            <Array as="points">
              <mxPoint x="569.84" y="790" />
              <mxPoint x="569.84" y="790" />
            </Array>
          </mxGeometry>
        </mxCell>
        <mxCell id="-OiWv6YgdJjUTmC7FPqm-41" value="PmID" style="edgeLabel;html=1;align=center;verticalAlign=middle;resizable=0;points=[];labelBackgroundColor=none;" parent="-OiWv6YgdJjUTmC7FPqm-40" vertex="1" connectable="0">
          <mxGeometry x="0.9524" y="-2" relative="1" as="geometry">
            <mxPoint x="-2" y="-13" as="offset" />
          </mxGeometry>
        </mxCell>
        <mxCell id="-OiWv6YgdJjUTmC7FPqm-42" style="edgeStyle=orthogonalEdgeStyle;rounded=0;orthogonalLoop=1;jettySize=auto;html=1;endArrow=oval;endFill=1;labelBackgroundColor=none;" parent="1" edge="1">
          <mxGeometry relative="1" as="geometry">
            <mxPoint x="373" y="880" as="targetPoint" />
            <mxPoint x="373" y="900" as="sourcePoint" />
            <Array as="points">
              <mxPoint x="373" y="900" />
              <mxPoint x="373" y="900" />
            </Array>
          </mxGeometry>
        </mxCell>
        <mxCell id="-OiWv6YgdJjUTmC7FPqm-43" value="CdID" style="edgeLabel;html=1;align=center;verticalAlign=middle;resizable=0;points=[];labelBackgroundColor=none;" parent="-OiWv6YgdJjUTmC7FPqm-42" vertex="1" connectable="0">
          <mxGeometry x="0.9524" y="-2" relative="1" as="geometry">
            <mxPoint x="-1" y="-13" as="offset" />
          </mxGeometry>
        </mxCell>
        <mxCell id="-OiWv6YgdJjUTmC7FPqm-44" style="edgeStyle=orthogonalEdgeStyle;rounded=0;orthogonalLoop=1;jettySize=auto;html=1;endArrow=oval;endFill=0;labelBackgroundColor=none;exitX=1;exitY=0.25;exitDx=0;exitDy=0;" parent="1" source="QXhSvdudEU8Zpg_jGtjA-16" edge="1">
          <mxGeometry relative="1" as="geometry">
            <mxPoint x="270" y="810" as="targetPoint" />
            <mxPoint x="290" y="810" as="sourcePoint" />
          </mxGeometry>
        </mxCell>
        <mxCell id="-OiWv6YgdJjUTmC7FPqm-45" value="Gender" style="edgeLabel;html=1;align=center;verticalAlign=middle;resizable=0;points=[];labelBackgroundColor=none;" parent="-OiWv6YgdJjUTmC7FPqm-44" vertex="1" connectable="0">
          <mxGeometry x="1" y="-1" relative="1" as="geometry">
            <mxPoint x="23" y="-1" as="offset" />
          </mxGeometry>
        </mxCell>
        <mxCell id="-OiWv6YgdJjUTmC7FPqm-46" style="edgeStyle=orthogonalEdgeStyle;rounded=0;orthogonalLoop=1;jettySize=auto;html=1;endArrow=oval;endFill=0;labelBackgroundColor=none;exitX=1;exitY=0.25;exitDx=0;exitDy=0;" parent="1" edge="1">
          <mxGeometry relative="1" as="geometry">
            <mxPoint x="270" y="830" as="targetPoint" />
            <mxPoint x="260" y="830" as="sourcePoint" />
          </mxGeometry>
        </mxCell>
        <mxCell id="-OiWv6YgdJjUTmC7FPqm-47" value="Category" style="edgeLabel;html=1;align=center;verticalAlign=middle;resizable=0;points=[];labelBackgroundColor=none;" parent="-OiWv6YgdJjUTmC7FPqm-46" vertex="1" connectable="0">
          <mxGeometry x="1" y="-1" relative="1" as="geometry">
            <mxPoint x="27" y="-1" as="offset" />
          </mxGeometry>
        </mxCell>
        <mxCell id="-OiWv6YgdJjUTmC7FPqm-48" style="edgeStyle=orthogonalEdgeStyle;rounded=0;orthogonalLoop=1;jettySize=auto;html=1;endArrow=oval;endFill=0;labelBackgroundColor=none;exitX=0.969;exitY=1.029;exitDx=0;exitDy=0;exitPerimeter=0;" parent="1" edge="1">
          <mxGeometry relative="1" as="geometry">
            <mxPoint x="372.81" y="680" as="targetPoint" />
            <mxPoint x="372.81" y="661" as="sourcePoint" />
            <Array as="points">
              <mxPoint x="372.81" y="670" />
              <mxPoint x="372.81" y="670" />
            </Array>
          </mxGeometry>
        </mxCell>
        <mxCell id="-OiWv6YgdJjUTmC7FPqm-49" value="Role" style="edgeLabel;html=1;align=center;verticalAlign=middle;resizable=0;points=[];labelBackgroundColor=none;" parent="-OiWv6YgdJjUTmC7FPqm-48" vertex="1" connectable="0">
          <mxGeometry x="1" y="-1" relative="1" as="geometry">
            <mxPoint y="10" as="offset" />
          </mxGeometry>
        </mxCell>
        <mxCell id="-OiWv6YgdJjUTmC7FPqm-51" value="1" style="edgeLabel;html=1;align=center;verticalAlign=middle;resizable=0;points=[];labelBackgroundColor=none;" parent="1" vertex="1" connectable="0">
          <mxGeometry x="214" y="793" as="geometry" />
        </mxCell>
        <mxCell id="-OiWv6YgdJjUTmC7FPqm-52" value="1" style="edgeLabel;html=1;align=center;verticalAlign=middle;resizable=0;points=[];labelBackgroundColor=none;" parent="1" vertex="1" connectable="0">
          <mxGeometry x="417" y="667" as="geometry" />
        </mxCell>
        <mxCell id="-OiWv6YgdJjUTmC7FPqm-53" value="1" style="edgeLabel;html=1;align=center;verticalAlign=middle;resizable=0;points=[];labelBackgroundColor=none;" parent="1" vertex="1" connectable="0">
          <mxGeometry x="417" y="893" as="geometry" />
        </mxCell>
        <mxCell id="-OiWv6YgdJjUTmC7FPqm-54" value="1" style="edgeLabel;html=1;align=center;verticalAlign=middle;resizable=0;points=[];labelBackgroundColor=none;" parent="1" vertex="1" connectable="0">
          <mxGeometry x="467" y="633" as="geometry" />
        </mxCell>
        <mxCell id="-OiWv6YgdJjUTmC7FPqm-55" value="1" style="edgeLabel;html=1;align=center;verticalAlign=middle;resizable=0;points=[];labelBackgroundColor=none;" parent="1" vertex="1" connectable="0">
          <mxGeometry x="615" y="793" as="geometry" />
        </mxCell>
        <mxCell id="-OiWv6YgdJjUTmC7FPqm-58" value="1" style="edgeLabel;html=1;align=center;verticalAlign=middle;resizable=0;points=[];labelBackgroundColor=none;" parent="1" vertex="1" connectable="0">
          <mxGeometry x="615" y="848" as="geometry" />
        </mxCell>
        <mxCell id="-OiWv6YgdJjUTmC7FPqm-61" value="N" style="edgeLabel;html=1;align=center;verticalAlign=middle;resizable=0;points=[];labelBackgroundColor=none;" parent="1" vertex="1" connectable="0">
          <mxGeometry x="216" y="847" as="geometry" />
        </mxCell>
        <mxCell id="-OiWv6YgdJjUTmC7FPqm-62" value="N" style="edgeLabel;html=1;align=center;verticalAlign=middle;resizable=0;points=[];labelBackgroundColor=none;" parent="1" vertex="1" connectable="0">
          <mxGeometry x="364" y="1033" as="geometry" />
        </mxCell>
        <mxCell id="-OiWv6YgdJjUTmC7FPqm-65" value="N" style="edgeLabel;html=1;align=center;verticalAlign=middle;resizable=0;points=[];labelBackgroundColor=none;" parent="1" vertex="1" connectable="0">
          <mxGeometry x="215" y="1068" as="geometry">
            <mxPoint x="1" as="offset" />
          </mxGeometry>
        </mxCell>
        <mxCell id="PArqzCIAgWLGkV0erf1x-4" style="edgeStyle=orthogonalEdgeStyle;rounded=0;orthogonalLoop=1;jettySize=auto;html=1;entryX=1;entryY=0.5;entryDx=0;entryDy=0;exitX=0.502;exitY=0.97;exitDx=0;exitDy=0;exitPerimeter=0;endArrow=none;endFill=0;" parent="1" source="PArqzCIAgWLGkV0erf1x-1" target="QXhSvdudEU8Zpg_jGtjA-48" edge="1">
          <mxGeometry relative="1" as="geometry">
            <mxPoint x="499.9999999999999" y="859.1643835616437" as="sourcePoint" />
            <mxPoint x="463" y="923" as="targetPoint" />
            <Array as="points">
              <mxPoint x="504" y="920" />
            </Array>
          </mxGeometry>
        </mxCell>
        <mxCell id="_c7CjKo0JtjSk6hhED-u-1" value="1" style="edgeLabel;html=1;align=center;verticalAlign=middle;resizable=0;points=[];labelBackgroundColor=none;" vertex="1" connectable="0" parent="PArqzCIAgWLGkV0erf1x-4">
          <mxGeometry x="0.8074" y="1" relative="1" as="geometry">
            <mxPoint x="-6" y="-11" as="offset" />
          </mxGeometry>
        </mxCell>
        <mxCell id="PArqzCIAgWLGkV0erf1x-1" value="Hire" style="rhombus;whiteSpace=wrap;html=1;fillColor=none;rounded=1;arcSize=10;" parent="1" vertex="1">
          <mxGeometry x="467" y="780" width="73" height="80" as="geometry" />
        </mxCell>
      </root>
    </mxGraphModel>
  </diagram>
</mxfile>
